<svg width="26" height="26" viewBox="0 0 26 26" fill="none" xmlns="http://www.w3.org/2000/svg">
    <path d="M1 3.37363C1 2.09023 2.28395 1.26374 3.07407 1H25C25 1 24.5008 2.50435 24.5 3.5C24.4992 4.49985 25 6.01099 25 6.01099M1 3.37363C0.999999 5.21978 1.59259 5.48352 2.48148 6.01099H25M1 3.37363C1 9.08791 1 20.8857 1 22.3626C1 23.8396 1.98765 24.5604 2.48148 24.7363L25 25V6.01099M15.8148 13.1319C15.8148 12.4286 15.3407 11.022 13.4444 11.022M13.4444 11.022C11.0741 11.022 11.0741 12.8681 11.0741 13.1319C11.0741 13.3956 11.0741 14.4506 13.4444 15.2418C15.8148 16.033 15.8148 16.2967 15.8148 17.3516C15.8148 18.4066 14.9259 19.4615 13.4444 19.4615M13.4444 11.022V9.96703M13.4444 19.4615C11.3704 19.4615 11.0741 17.6154 11.0741 17.3516M13.4444 19.4615V20.5165"
          stroke="#313131" stroke-linecap="round" stroke-linejoin="round"/>
</svg>
