<svg width="24" height="24" viewBox="0 0 24 24" fill="none" xmlns="http://www.w3.org/2000/svg">
    <path d="M0.5 11.9998C0.5 5.65921 5.65945 0.499756 12 0.499756C18.3405 0.499756 23.5 5.65921 23.5 11.9998C23.5 18.3403 18.3405 23.4998 12 23.4998C5.65945 23.4998 0.5 18.3403 0.5 11.9998Z"
          stroke="#313131"/>
    <path d="M12 11.4998V11.9998H12.5H18.5L18.5 11.9998L18.5 11.9998H12.5H12V12.4998V18.4998L12 18.4998L12 18.4998V12.4998V11.9998H11.5H5.49999L5.49997 11.9998L5.49999 11.9998H11.5H12V11.4998V5.49977L12 5.49976L12 5.49977V11.4998Z"
          stroke="#313131"/>
</svg>
