<svg width="46" height="35" viewBox="0 0 46 35" fill="none" xmlns="http://www.w3.org/2000/svg">
<path d="M44.4696 5.4529C43.5513 4.52295 42.2833 3.97343 40.8403 3.97343H33.5817V3.88889C33.5817 2.83213 33.1445 1.81763 32.4011 1.1413C31.6578 0.422705 30.6521 0 29.5589 0H16.4411C15.3042 0 14.2985 0.422705 13.5551 1.1413C12.8118 1.8599 12.3745 2.83213 12.3745 3.88889V3.97343H5.1597C3.71673 3.97343 2.44867 4.52295 1.53042 5.4529C0.612167 6.34058 0 7.6087 0 8.96135V30.0121C0 31.407 0.568441 32.6329 1.53042 33.5205C2.44867 34.4082 3.76046 35 5.1597 35H40.8403C42.2833 35 43.5513 34.4505 44.4696 33.5205C45.3878 32.6329 46 31.3647 46 30.0121V8.96135C46 7.56642 45.4316 6.34058 44.4696 5.4529ZM43.7262 30.0121H43.6825C43.6825 30.7729 43.3764 31.4493 42.8517 31.9565C42.327 32.4638 41.6274 32.7597 40.8403 32.7597H5.1597C4.37262 32.7597 3.673 32.4638 3.14829 31.9565C2.62357 31.4493 2.31749 30.7729 2.31749 30.0121V8.96135C2.31749 8.20048 2.62357 7.52415 3.14829 7.01691C3.673 6.50966 4.37262 6.21377 5.1597 6.21377H13.5989C14.2548 6.21377 14.7795 5.70652 14.7795 5.07246V3.84662C14.7795 3.38164 14.9544 2.95894 15.2605 2.66304C15.5665 2.36715 16.0038 2.19807 16.4848 2.19807H29.5589C30.0399 2.19807 30.4772 2.36715 30.7833 2.66304C31.0894 2.95894 31.2643 3.38164 31.2643 3.84662V5.07246C31.2643 5.70652 31.789 6.21377 32.4449 6.21377H40.884C41.6711 6.21377 42.3707 6.50966 42.8954 7.01691C43.4202 7.52415 43.7262 8.20048 43.7262 8.96135V30.0121Z" fill="#313131"/>
<path d="M22.9998 9.08813C20.0264 9.08813 17.3154 10.2717 15.3915 12.1316C13.4238 14.0338 12.2432 16.6123 12.2432 19.4867C12.2432 22.3611 13.4675 24.9819 15.3915 26.8418C17.3591 28.7439 20.0264 29.8852 22.9998 29.8852C25.9732 29.8852 28.6842 28.7017 30.6082 26.8418C32.5759 24.9396 33.7565 22.3611 33.7565 19.4867C33.7565 16.6123 32.5321 13.9915 30.6082 12.1316C28.6842 10.2717 25.9732 9.08813 22.9998 9.08813ZM28.9466 25.2778C27.4162 26.715 25.3173 27.6449 22.9998 27.6449C20.6823 27.6449 18.5835 26.715 17.0531 25.2778C15.5226 23.7983 14.6044 21.7693 14.6044 19.529C14.6044 17.2886 15.5664 15.2596 17.0531 13.7802C18.5835 12.3007 20.6823 11.413 22.9998 11.413C25.3173 11.413 27.4162 12.343 28.9466 13.7802C30.477 15.2596 31.3953 17.2886 31.3953 19.529C31.439 21.7693 30.477 23.7983 28.9466 25.2778Z" fill="#313131"/>
<path d="M38.5664 13.1884C39.7497 13.1884 40.709 12.2611 40.709 11.1172C40.709 9.97323 39.7497 9.0459 38.5664 9.0459C37.3831 9.0459 36.4238 9.97323 36.4238 11.1172C36.4238 12.2611 37.3831 13.1884 38.5664 13.1884Z" fill="#313131"/>
</svg>
