<svg width="30" height="29" viewBox="0 0 30 29" fill="none" xmlns="http://www.w3.org/2000/svg">
<path d="M14.5 0C6.50484 0 0.0483776 6.50466 0.107839 14.4996C0.167301 22.4945 6.72051 28.9992 14.7157 28.9992C22.7108 28.9992 29.1673 22.4945 29.1078 14.4996C29.0484 6.50466 22.4952 0 14.5 0ZM14.7067 27.7909C7.37762 27.7909 1.37066 21.8285 1.31615 14.4996C1.26165 7.17073 7.17992 1.20828 14.509 1.20828C21.8381 1.20828 27.845 7.17073 27.8995 14.4996C27.954 21.8285 22.0358 27.7909 14.7067 27.7909Z" fill="#313131"/>
<path d="M19.7311 8.52178L14.6046 13.6483L9.44014 8.56004C9.20225 8.32566 8.81867 8.32708 8.58253 8.56322C8.34639 8.79936 8.3478 9.1801 8.58569 9.41448L13.7502 14.5027L8.62367 19.6293C8.38753 19.8654 8.38894 20.2461 8.62683 20.4805C8.86472 20.7149 9.2483 20.7135 9.48444 20.4773L14.611 15.3508L19.7755 20.4391C20.0133 20.6735 20.3969 20.672 20.6331 20.4359C20.8692 20.1997 20.8678 19.819 20.6299 19.5846L15.4654 14.4964L20.5919 9.36985C20.8281 9.13371 20.8267 8.75297 20.5888 8.51859C20.3509 8.28421 19.9673 8.28564 19.7311 8.52178Z" fill="#313131"/>
</svg>
