<svg width="24" height="24" viewBox="0 0 24 24" fill="none" xmlns="http://www.w3.org/2000/svg">
    <path d="M10.5 12.3288V12.5003L10.6053 12.6358L17.4999 21.4992L17.5003 21.4996C16.5583 22.2741 15.7411 22.7651 14.8344 23.0686C13.9237 23.3734 12.8903 23.4997 11.5 23.4997C5.43515 23.4997 0.5 18.5645 0.5 12.4997C0.5 6.39111 5.02798 1.49976 10.5 1.49976L10.5 1.49977V12.3288ZM17.818 21.8857L17.8169 21.8845L17.818 21.8857Z"
          stroke="#313131"/>
    <path d="M23.5 11.5H12.5L12.5 11.5V0.500015L12.5 0.5C18.5648 0.5 23.4999 5.43515 23.5 11.5L23.5 11.5Z"
          stroke="#313131"/>
    <path d="M19.4805 21.0267L12.9806 12.98H22.9805L22.9805 12.98C22.9805 16.0185 21.7047 18.9516 19.4819 21.026C19.4814 21.0265 19.4809 21.0267 19.4806 21.0268L19.4805 21.0267Z"
          stroke="#313131"/>
</svg>
